<svg width="16" height="16" viewBox="0 0 16 16" fill="none" xmlns="http://www.w3.org/2000/svg">
<path fill-rule="evenodd" clip-rule="evenodd" d="M8 16C12.4183 16 16 12.4183 16 8C16 3.58172 12.4183 0 8 0C3.58172 0 0 3.58172 0 8C0 12.4183 3.58172 16 8 16Z" fill="#5A6ABC"/>
<path fill-rule="evenodd" clip-rule="evenodd" d="M5.6126 6.77963C5.36456 6.54709 4.97859 6.54709 4.73055 6.77963C4.45881 7.03438 4.45881 7.46572 4.73055 7.72048L7.55886 10.372C7.5589 10.372 7.55894 10.3721 7.55898 10.3721C7.58998 10.4012 7.62314 10.4266 7.65792 10.4484C7.90135 10.601 8.22399 10.5756 8.44102 10.3721L11.2695 7.72048C11.5412 7.46572 11.5412 7.03438 11.2695 6.77963C11.0214 6.54709 10.6354 6.54709 10.3874 6.77963L8 9.01782L5.6126 6.77963Z" fill="white"/>
</svg>
